<mxfile host="Electron" agent="Mozilla/5.0 (Windows NT 10.0; Win64; x64) AppleWebKit/537.36 (KHTML, like Gecko) draw.io/28.0.6 Chrome/138.0.7204.100 Electron/37.2.3 Safari/537.36" version="28.0.6">
  <diagram name="Page-1" id="D7Xnyo9T_Ll_KMyQSbxU">
    <mxGraphModel dx="1026" dy="766" grid="1" gridSize="10" guides="1" tooltips="1" connect="1" arrows="1" fold="1" page="1" pageScale="1" pageWidth="850" pageHeight="1100" math="0" shadow="0">
      <root>
        <mxCell id="0" />
        <mxCell id="1" parent="0" />
        <mxCell id="8Dg7XbebDBBwj13vGwG0-1" value="" style="shape=mxgraph.cisco.routers.router;sketch=0;html=1;pointerEvents=1;dashed=0;fillColor=#036897;strokeColor=#ffffff;strokeWidth=2;verticalLabelPosition=bottom;verticalAlign=top;align=center;outlineConnect=0;" vertex="1" parent="1">
          <mxGeometry x="380" y="340" width="78" height="53" as="geometry" />
        </mxCell>
        <mxCell id="8Dg7XbebDBBwj13vGwG0-2" value="" style="shape=mxgraph.cisco.servers.file_server;sketch=0;html=1;pointerEvents=1;dashed=0;fillColor=#036897;strokeColor=#ffffff;strokeWidth=2;verticalLabelPosition=bottom;verticalAlign=top;align=center;outlineConnect=0;" vertex="1" parent="1">
          <mxGeometry x="770" y="302" width="43" height="58" as="geometry" />
        </mxCell>
        <mxCell id="8Dg7XbebDBBwj13vGwG0-3" value="" style="shape=mxgraph.cisco.servers.fileserver;sketch=0;html=1;pointerEvents=1;dashed=0;fillColor=#036897;strokeColor=#ffffff;strokeWidth=2;verticalLabelPosition=bottom;verticalAlign=top;align=center;outlineConnect=0;" vertex="1" parent="1">
          <mxGeometry x="770" y="600" width="43" height="62" as="geometry" />
        </mxCell>
        <mxCell id="8Dg7XbebDBBwj13vGwG0-4" value="" style="shape=mxgraph.cisco.switches.layer_3_switch;sketch=0;html=1;pointerEvents=1;dashed=0;fillColor=#036897;strokeColor=#ffffff;strokeWidth=2;verticalLabelPosition=bottom;verticalAlign=top;align=center;outlineConnect=0;" vertex="1" parent="1">
          <mxGeometry x="394" y="600" width="64" height="64" as="geometry" />
        </mxCell>
        <mxCell id="8Dg7XbebDBBwj13vGwG0-5" value="" style="shape=mxgraph.cisco.routers.router;sketch=0;html=1;pointerEvents=1;dashed=0;fillColor=#036897;strokeColor=#ffffff;strokeWidth=2;verticalLabelPosition=bottom;verticalAlign=top;align=center;outlineConnect=0;" vertex="1" parent="1">
          <mxGeometry x="380" y="460" width="78" height="53" as="geometry" />
        </mxCell>
        <mxCell id="8Dg7XbebDBBwj13vGwG0-6" value="" style="shape=mxgraph.cisco.servers.www_server;sketch=0;html=1;pointerEvents=1;dashed=0;fillColor=#036897;strokeColor=#ffffff;strokeWidth=2;verticalLabelPosition=bottom;verticalAlign=top;align=center;outlineConnect=0;" vertex="1" parent="1">
          <mxGeometry x="670" y="452" width="66" height="67" as="geometry" />
        </mxCell>
        <mxCell id="8Dg7XbebDBBwj13vGwG0-7" value="" style="shape=mxgraph.cisco.computers_and_peripherals.workstation;sketch=0;html=1;pointerEvents=1;dashed=0;fillColor=#036897;strokeColor=#ffffff;strokeWidth=2;verticalLabelPosition=bottom;verticalAlign=top;align=center;outlineConnect=0;" vertex="1" parent="1">
          <mxGeometry x="70" y="40" width="83" height="62" as="geometry" />
        </mxCell>
        <mxCell id="8Dg7XbebDBBwj13vGwG0-8" value="" style="shape=mxgraph.cisco.computers_and_peripherals.workstation;sketch=0;html=1;pointerEvents=1;dashed=0;fillColor=#036897;strokeColor=#ffffff;strokeWidth=2;verticalLabelPosition=bottom;verticalAlign=top;align=center;outlineConnect=0;" vertex="1" parent="1">
          <mxGeometry x="190" y="40" width="83" height="62" as="geometry" />
        </mxCell>
        <mxCell id="8Dg7XbebDBBwj13vGwG0-9" value="" style="shape=mxgraph.cisco.computers_and_peripherals.workstation;sketch=0;html=1;pointerEvents=1;dashed=0;fillColor=#036897;strokeColor=#ffffff;strokeWidth=2;verticalLabelPosition=bottom;verticalAlign=top;align=center;outlineConnect=0;" vertex="1" parent="1">
          <mxGeometry x="310" y="40" width="83" height="62" as="geometry" />
        </mxCell>
        <mxCell id="8Dg7XbebDBBwj13vGwG0-10" value="" style="shape=mxgraph.cisco.computers_and_peripherals.workstation;sketch=0;html=1;pointerEvents=1;dashed=0;fillColor=#036897;strokeColor=#ffffff;strokeWidth=2;verticalLabelPosition=bottom;verticalAlign=top;align=center;outlineConnect=0;" vertex="1" parent="1">
          <mxGeometry x="440" y="40" width="83" height="62" as="geometry" />
        </mxCell>
        <mxCell id="8Dg7XbebDBBwj13vGwG0-11" value="" style="shape=mxgraph.cisco.computers_and_peripherals.workstation;sketch=0;html=1;pointerEvents=1;dashed=0;fillColor=#036897;strokeColor=#ffffff;strokeWidth=2;verticalLabelPosition=bottom;verticalAlign=top;align=center;outlineConnect=0;" vertex="1" parent="1">
          <mxGeometry x="570" y="40" width="83" height="62" as="geometry" />
        </mxCell>
        <mxCell id="8Dg7XbebDBBwj13vGwG0-12" value="" style="shape=mxgraph.cisco.computers_and_peripherals.workstation;sketch=0;html=1;pointerEvents=1;dashed=0;fillColor=#036897;strokeColor=#ffffff;strokeWidth=2;verticalLabelPosition=bottom;verticalAlign=top;align=center;outlineConnect=0;" vertex="1" parent="1">
          <mxGeometry x="30" y="240" width="83" height="62" as="geometry" />
        </mxCell>
        <mxCell id="8Dg7XbebDBBwj13vGwG0-13" value="" style="shape=mxgraph.cisco.computers_and_peripherals.workstation;sketch=0;html=1;pointerEvents=1;dashed=0;fillColor=#036897;strokeColor=#ffffff;strokeWidth=2;verticalLabelPosition=bottom;verticalAlign=top;align=center;outlineConnect=0;" vertex="1" parent="1">
          <mxGeometry x="30" y="360" width="83" height="62" as="geometry" />
        </mxCell>
        <mxCell id="8Dg7XbebDBBwj13vGwG0-15" value="" style="shape=mxgraph.cisco.computers_and_peripherals.workstation;sketch=0;html=1;pointerEvents=1;dashed=0;fillColor=#036897;strokeColor=#ffffff;strokeWidth=2;verticalLabelPosition=bottom;verticalAlign=top;align=center;outlineConnect=0;" vertex="1" parent="1">
          <mxGeometry x="30" y="483" width="83" height="62" as="geometry" />
        </mxCell>
        <mxCell id="8Dg7XbebDBBwj13vGwG0-16" value="" style="shape=mxgraph.cisco.computers_and_peripherals.workstation;sketch=0;html=1;pointerEvents=1;dashed=0;fillColor=#036897;strokeColor=#ffffff;strokeWidth=2;verticalLabelPosition=bottom;verticalAlign=top;align=center;outlineConnect=0;" vertex="1" parent="1">
          <mxGeometry x="30" y="600" width="83" height="62" as="geometry" />
        </mxCell>
        <mxCell id="8Dg7XbebDBBwj13vGwG0-17" value="" style="sketch=0;html=1;aspect=fixed;strokeColor=none;shadow=0;fillColor=#3B8DF1;verticalAlign=top;labelPosition=center;verticalLabelPosition=bottom;shape=mxgraph.gcp2.cloud" vertex="1" parent="1">
          <mxGeometry x="375" y="171" width="100" height="69" as="geometry" />
        </mxCell>
        <mxCell id="8Dg7XbebDBBwj13vGwG0-18" value="Japan" style="text;html=1;align=center;verticalAlign=middle;whiteSpace=wrap;rounded=0;" vertex="1" parent="1">
          <mxGeometry x="70" y="10" width="60" height="30" as="geometry" />
        </mxCell>
        <mxCell id="8Dg7XbebDBBwj13vGwG0-19" value="Brazil" style="text;html=1;align=center;verticalAlign=middle;whiteSpace=wrap;rounded=0;" vertex="1" parent="1">
          <mxGeometry x="190" y="10" width="60" height="30" as="geometry" />
        </mxCell>
        <mxCell id="8Dg7XbebDBBwj13vGwG0-20" value="Italy" style="text;html=1;align=center;verticalAlign=middle;whiteSpace=wrap;rounded=0;" vertex="1" parent="1">
          <mxGeometry x="310" y="10" width="60" height="30" as="geometry" />
        </mxCell>
        <mxCell id="8Dg7XbebDBBwj13vGwG0-21" value="Thailand" style="text;html=1;align=center;verticalAlign=middle;whiteSpace=wrap;rounded=0;" vertex="1" parent="1">
          <mxGeometry x="451.5" y="10" width="60" height="30" as="geometry" />
        </mxCell>
        <mxCell id="8Dg7XbebDBBwj13vGwG0-22" value="Washington DC" style="text;html=1;align=center;verticalAlign=middle;whiteSpace=wrap;rounded=0;" vertex="1" parent="1">
          <mxGeometry x="570" y="10" width="60" height="30" as="geometry" />
        </mxCell>
        <mxCell id="8Dg7XbebDBBwj13vGwG0-23" value="Production" style="text;html=1;align=center;verticalAlign=middle;whiteSpace=wrap;rounded=0;" vertex="1" parent="1">
          <mxGeometry x="30" y="300" width="60" height="30" as="geometry" />
        </mxCell>
        <mxCell id="8Dg7XbebDBBwj13vGwG0-24" value="Finance" style="text;html=1;align=center;verticalAlign=middle;whiteSpace=wrap;rounded=0;" vertex="1" parent="1">
          <mxGeometry x="30" y="422" width="60" height="30" as="geometry" />
        </mxCell>
        <mxCell id="8Dg7XbebDBBwj13vGwG0-25" value="Data Center" style="text;html=1;align=center;verticalAlign=middle;whiteSpace=wrap;rounded=0;" vertex="1" parent="1">
          <mxGeometry y="662" width="60" height="30" as="geometry" />
        </mxCell>
        <mxCell id="8Dg7XbebDBBwj13vGwG0-26" value="Cust. Service" style="text;html=1;align=center;verticalAlign=middle;whiteSpace=wrap;rounded=0;" vertex="1" parent="1">
          <mxGeometry x="40" y="550" width="60" height="30" as="geometry" />
        </mxCell>
        <mxCell id="8Dg7XbebDBBwj13vGwG0-27" value="" style="endArrow=classic;startArrow=classic;html=1;rounded=0;entryX=0;entryY=0.5;entryDx=0;entryDy=0;entryPerimeter=0;exitX=0.755;exitY=0.5;exitDx=0;exitDy=0;exitPerimeter=0;" edge="1" parent="1" source="8Dg7XbebDBBwj13vGwG0-16" target="8Dg7XbebDBBwj13vGwG0-4">
          <mxGeometry width="50" height="50" relative="1" as="geometry">
            <mxPoint x="170" y="682" as="sourcePoint" />
            <mxPoint x="220" y="622" as="targetPoint" />
            <Array as="points" />
          </mxGeometry>
        </mxCell>
        <mxCell id="8Dg7XbebDBBwj13vGwG0-28" value="" style="endArrow=classic;startArrow=classic;html=1;rounded=0;exitX=0.755;exitY=0.5;exitDx=0;exitDy=0;exitPerimeter=0;" edge="1" parent="1" source="8Dg7XbebDBBwj13vGwG0-15">
          <mxGeometry width="50" height="50" relative="1" as="geometry">
            <mxPoint x="153" y="550" as="sourcePoint" />
            <mxPoint x="240" y="630" as="targetPoint" />
            <Array as="points">
              <mxPoint x="240" y="514" />
            </Array>
          </mxGeometry>
        </mxCell>
        <mxCell id="8Dg7XbebDBBwj13vGwG0-29" value="" style="endArrow=classic;startArrow=classic;html=1;rounded=0;exitX=0.755;exitY=0.5;exitDx=0;exitDy=0;exitPerimeter=0;" edge="1" parent="1" source="8Dg7XbebDBBwj13vGwG0-13">
          <mxGeometry width="50" height="50" relative="1" as="geometry">
            <mxPoint x="130" y="422" as="sourcePoint" />
            <mxPoint x="240" y="520" as="targetPoint" />
            <Array as="points">
              <mxPoint x="240" y="390" />
            </Array>
          </mxGeometry>
        </mxCell>
        <mxCell id="8Dg7XbebDBBwj13vGwG0-30" value="" style="endArrow=classic;startArrow=classic;html=1;rounded=0;exitX=0.755;exitY=0.5;exitDx=0;exitDy=0;exitPerimeter=0;" edge="1" parent="1" source="8Dg7XbebDBBwj13vGwG0-12">
          <mxGeometry width="50" height="50" relative="1" as="geometry">
            <mxPoint x="113" y="302" as="sourcePoint" />
            <mxPoint x="240" y="390" as="targetPoint" />
            <Array as="points">
              <mxPoint x="240" y="271" />
            </Array>
          </mxGeometry>
        </mxCell>
        <mxCell id="8Dg7XbebDBBwj13vGwG0-31" value="" style="endArrow=classic;startArrow=classic;html=1;rounded=0;exitX=0.1;exitY=0.464;exitDx=0;exitDy=0;exitPerimeter=0;" edge="1" parent="1" source="8Dg7XbebDBBwj13vGwG0-17" target="8Dg7XbebDBBwj13vGwG0-7">
          <mxGeometry width="50" height="50" relative="1" as="geometry">
            <mxPoint x="70" y="171" as="sourcePoint" />
            <mxPoint x="120" y="121" as="targetPoint" />
            <Array as="points">
              <mxPoint x="110" y="203" />
            </Array>
          </mxGeometry>
        </mxCell>
        <mxCell id="8Dg7XbebDBBwj13vGwG0-32" value="" style="endArrow=classic;startArrow=classic;html=1;rounded=0;" edge="1" parent="1" target="8Dg7XbebDBBwj13vGwG0-8">
          <mxGeometry width="50" height="50" relative="1" as="geometry">
            <mxPoint x="230" y="200" as="sourcePoint" />
            <mxPoint x="245" y="121" as="targetPoint" />
          </mxGeometry>
        </mxCell>
        <mxCell id="8Dg7XbebDBBwj13vGwG0-33" value="" style="endArrow=classic;startArrow=classic;html=1;rounded=0;" edge="1" parent="1" target="8Dg7XbebDBBwj13vGwG0-9">
          <mxGeometry width="50" height="50" relative="1" as="geometry">
            <mxPoint x="350" y="200" as="sourcePoint" />
            <mxPoint x="365" y="130" as="targetPoint" />
          </mxGeometry>
        </mxCell>
        <mxCell id="8Dg7XbebDBBwj13vGwG0-34" value="" style="endArrow=classic;startArrow=classic;html=1;rounded=0;" edge="1" parent="1" target="8Dg7XbebDBBwj13vGwG0-10">
          <mxGeometry width="50" height="50" relative="1" as="geometry">
            <mxPoint x="520" y="200" as="sourcePoint" />
            <mxPoint x="500" y="102" as="targetPoint" />
            <Array as="points">
              <mxPoint x="520" y="160" />
              <mxPoint x="482" y="160" />
            </Array>
          </mxGeometry>
        </mxCell>
        <mxCell id="8Dg7XbebDBBwj13vGwG0-35" value="" style="endArrow=classic;startArrow=classic;html=1;rounded=0;exitX=0.97;exitY=0.42;exitDx=0;exitDy=0;exitPerimeter=0;entryX=0.434;entryY=0.968;entryDx=0;entryDy=0;entryPerimeter=0;" edge="1" parent="1" source="8Dg7XbebDBBwj13vGwG0-17" target="8Dg7XbebDBBwj13vGwG0-11">
          <mxGeometry width="50" height="50" relative="1" as="geometry">
            <mxPoint x="580" y="152" as="sourcePoint" />
            <mxPoint x="630" y="102" as="targetPoint" />
            <Array as="points">
              <mxPoint x="606" y="200" />
            </Array>
          </mxGeometry>
        </mxCell>
        <mxCell id="8Dg7XbebDBBwj13vGwG0-36" value="" style="endArrow=classic;startArrow=classic;html=1;rounded=0;exitX=0.5;exitY=0;exitDx=0;exitDy=0;exitPerimeter=0;entryX=0.44;entryY=0.986;entryDx=0;entryDy=0;entryPerimeter=0;" edge="1" parent="1" source="8Dg7XbebDBBwj13vGwG0-1" target="8Dg7XbebDBBwj13vGwG0-17">
          <mxGeometry width="50" height="50" relative="1" as="geometry">
            <mxPoint x="401.5" y="296" as="sourcePoint" />
            <mxPoint x="451.5" y="246" as="targetPoint" />
          </mxGeometry>
        </mxCell>
        <mxCell id="8Dg7XbebDBBwj13vGwG0-37" value="" style="endArrow=classic;startArrow=classic;html=1;rounded=0;entryX=0.5;entryY=1;entryDx=0;entryDy=0;entryPerimeter=0;exitX=0.5;exitY=0;exitDx=0;exitDy=0;exitPerimeter=0;" edge="1" parent="1" source="8Dg7XbebDBBwj13vGwG0-5" target="8Dg7XbebDBBwj13vGwG0-1">
          <mxGeometry width="50" height="50" relative="1" as="geometry">
            <mxPoint x="390" y="460" as="sourcePoint" />
            <mxPoint x="440" y="410" as="targetPoint" />
          </mxGeometry>
        </mxCell>
        <mxCell id="8Dg7XbebDBBwj13vGwG0-39" value="" style="endArrow=classic;startArrow=classic;html=1;rounded=0;exitX=0.5;exitY=0;exitDx=0;exitDy=0;exitPerimeter=0;entryX=0.59;entryY=1.057;entryDx=0;entryDy=0;entryPerimeter=0;" edge="1" parent="1" source="8Dg7XbebDBBwj13vGwG0-4" target="8Dg7XbebDBBwj13vGwG0-5">
          <mxGeometry width="50" height="50" relative="1" as="geometry">
            <mxPoint x="407" y="590" as="sourcePoint" />
            <mxPoint x="457" y="540" as="targetPoint" />
          </mxGeometry>
        </mxCell>
        <mxCell id="8Dg7XbebDBBwj13vGwG0-40" value="" style="endArrow=classic;startArrow=classic;html=1;rounded=0;" edge="1" parent="1" target="8Dg7XbebDBBwj13vGwG0-2">
          <mxGeometry width="50" height="50" relative="1" as="geometry">
            <mxPoint x="560" y="490" as="sourcePoint" />
            <mxPoint x="720" y="290" as="targetPoint" />
            <Array as="points">
              <mxPoint x="560" y="331" />
            </Array>
          </mxGeometry>
        </mxCell>
        <mxCell id="8Dg7XbebDBBwj13vGwG0-41" value="" style="endArrow=classic;startArrow=classic;html=1;rounded=0;exitX=1;exitY=0.5;exitDx=0;exitDy=0;exitPerimeter=0;entryX=0.13;entryY=0.5;entryDx=0;entryDy=0;entryPerimeter=0;" edge="1" parent="1" source="8Dg7XbebDBBwj13vGwG0-5" target="8Dg7XbebDBBwj13vGwG0-6">
          <mxGeometry width="50" height="50" relative="1" as="geometry">
            <mxPoint x="603" y="477" as="sourcePoint" />
            <mxPoint x="653" y="427" as="targetPoint" />
          </mxGeometry>
        </mxCell>
        <mxCell id="8Dg7XbebDBBwj13vGwG0-42" value="" style="endArrow=classic;startArrow=classic;html=1;rounded=0;exitX=1;exitY=0.5;exitDx=0;exitDy=0;exitPerimeter=0;" edge="1" parent="1" source="8Dg7XbebDBBwj13vGwG0-4" target="8Dg7XbebDBBwj13vGwG0-3">
          <mxGeometry width="50" height="50" relative="1" as="geometry">
            <mxPoint x="653" y="630" as="sourcePoint" />
            <mxPoint x="703" y="580" as="targetPoint" />
          </mxGeometry>
        </mxCell>
        <mxCell id="8Dg7XbebDBBwj13vGwG0-43" value="" style="endArrow=none;dashed=1;html=1;rounded=0;entryX=0.5;entryY=1;entryDx=0;entryDy=0;entryPerimeter=0;exitX=0.5;exitY=0;exitDx=0;exitDy=0;exitPerimeter=0;" edge="1" parent="1" source="8Dg7XbebDBBwj13vGwG0-3" target="8Dg7XbebDBBwj13vGwG0-2">
          <mxGeometry width="50" height="50" relative="1" as="geometry">
            <mxPoint x="770" y="468.5" as="sourcePoint" />
            <mxPoint x="820" y="418.5" as="targetPoint" />
          </mxGeometry>
        </mxCell>
        <mxCell id="8Dg7XbebDBBwj13vGwG0-44" value="" style="endArrow=none;dashed=1;html=1;rounded=0;" edge="1" parent="1" source="8Dg7XbebDBBwj13vGwG0-47">
          <mxGeometry width="50" height="50" relative="1" as="geometry">
            <mxPoint x="70" y="680" as="sourcePoint" />
            <mxPoint x="790" y="560" as="targetPoint" />
            <Array as="points">
              <mxPoint x="70" y="680" />
              <mxPoint x="600" y="680" />
              <mxPoint x="600" y="560" />
            </Array>
          </mxGeometry>
        </mxCell>
        <mxCell id="8Dg7XbebDBBwj13vGwG0-45" value="" style="endArrow=none;dashed=1;html=1;rounded=0;" edge="1" parent="1">
          <mxGeometry width="50" height="50" relative="1" as="geometry">
            <mxPoint x="520" y="680" as="sourcePoint" />
            <mxPoint x="460" y="360" as="targetPoint" />
            <Array as="points">
              <mxPoint x="520" y="360" />
            </Array>
          </mxGeometry>
        </mxCell>
        <mxCell id="8Dg7XbebDBBwj13vGwG0-46" value="" style="endArrow=none;dashed=1;html=1;rounded=0;exitX=0.987;exitY=0.245;exitDx=0;exitDy=0;exitPerimeter=0;" edge="1" parent="1" source="8Dg7XbebDBBwj13vGwG0-5">
          <mxGeometry width="50" height="50" relative="1" as="geometry">
            <mxPoint x="490" y="575" as="sourcePoint" />
            <mxPoint x="520" y="473" as="targetPoint" />
          </mxGeometry>
        </mxCell>
        <mxCell id="8Dg7XbebDBBwj13vGwG0-48" value="" style="endArrow=none;dashed=1;html=1;rounded=0;" edge="1" parent="1" source="8Dg7XbebDBBwj13vGwG0-16" target="8Dg7XbebDBBwj13vGwG0-47">
          <mxGeometry width="50" height="50" relative="1" as="geometry">
            <mxPoint x="71" y="662" as="sourcePoint" />
            <mxPoint x="790" y="560" as="targetPoint" />
            <Array as="points" />
          </mxGeometry>
        </mxCell>
        <mxCell id="8Dg7XbebDBBwj13vGwG0-47" value="Management Network" style="text;html=1;align=center;verticalAlign=middle;whiteSpace=wrap;rounded=0;" vertex="1" parent="1">
          <mxGeometry x="40" y="710" width="60" height="30" as="geometry" />
        </mxCell>
        <mxCell id="8Dg7XbebDBBwj13vGwG0-49" value="Web Server" style="text;html=1;align=center;verticalAlign=middle;whiteSpace=wrap;rounded=0;" vertex="1" parent="1">
          <mxGeometry x="673" y="420" width="60" height="30" as="geometry" />
        </mxCell>
        <mxCell id="8Dg7XbebDBBwj13vGwG0-50" value="Server" style="text;html=1;align=center;verticalAlign=middle;whiteSpace=wrap;rounded=0;" vertex="1" parent="1">
          <mxGeometry x="753" y="664" width="60" height="30" as="geometry" />
        </mxCell>
        <mxCell id="8Dg7XbebDBBwj13vGwG0-51" value="Backup Server" style="text;html=1;align=center;verticalAlign=middle;whiteSpace=wrap;rounded=0;" vertex="1" parent="1">
          <mxGeometry x="770" y="260" width="60" height="30" as="geometry" />
        </mxCell>
      </root>
    </mxGraphModel>
  </diagram>
</mxfile>
